<svg viewBox="-20 0 512 512" xmlns="http://www.w3.org/2000/svg"><path d="m235.867188 512c-32.5625 0-62.65625-27.433594-84.734376-77.246094-21.21875-47.871094-32.902343-111.355468-32.902343-178.753906s11.683593-130.882812 32.902343-178.753906c22.078126-49.8125 52.171876-77.246094 84.734376-77.246094 32.566406 0 62.660156 27.433594 84.738281 77.246094 21.214843 47.871094 32.902343 111.355468 32.902343 178.753906s-11.6875 130.882812-32.902343 178.753906c-22.078125 49.8125-52.171875 77.246094-84.738281 77.246094zm0-497c-25.890626 0-51.777344 24.902344-71.023438 68.324219-20.386719 45.996093-31.613281 107.320312-31.613281 172.675781s11.226562 126.679688 31.613281 172.675781c19.246094 43.421875 45.132812 68.324219 71.023438 68.324219 25.894531 0 51.777343-24.902344 71.023437-68.324219 20.386719-45.996093 31.617187-107.320312 31.617187-172.675781s-11.230468-126.679688-31.617187-172.675781c-19.246094-43.421875-45.128906-68.324219-71.023437-68.324219zm0 0" fill="#596674"/><path d="m368.964844 411.019531c-53.53125 0-120.933594-18.011719-184.921875-49.410156-60.507813-29.695313-112.351563-68.152344-145.980469-108.289063-34.992188-41.765624-46.359375-80.867187-32.011719-110.101562 13.363281-27.234375 47.714844-42.234375 96.71875-42.234375 53.535157 0 120.9375 18.007813 184.925781 49.410156 60.503907 29.691407 112.347657 68.148438 145.976563 108.285157 34.992187 41.765624 46.363281 80.867187 32.015625 110.101562-13.367188 27.238281-47.71875 42.238281-96.722656 42.238281zm-266.191406-295.039062c-42.980469 0-72.546876 12.023437-83.257813 33.847656-11.40625 23.242187-.453125 57.453125 30.046875 93.859375 32.3125 38.566406 82.417969 75.660156 141.089844 104.453125 62 30.425781 126.992187 47.875 178.3125 47.875 42.976562 0 72.546875-12.019531 83.253906-33.84375 11.410156-23.242187.457031-57.453125-30.042969-93.859375-32.3125-38.566406-82.421875-75.664062-141.089843-104.453125-62-30.425781-126.996094-47.878906-178.3125-47.878906zm0 0" fill="#464c51"/><path d="m102.773438 411.019531c-49.007813-.003906-83.355469-15.003906-96.722657-42.238281-14.347656-29.234375-2.976562-68.335938 32.011719-110.101562 33.628906-40.136719 85.472656-78.59375 145.980469-108.285157 63.988281-31.402343 131.390625-49.410156 184.921875-49.410156 49.007812 0 83.355468 15 96.722656 42.234375 14.347656 29.234375 2.976562 68.335938-32.015625 110.101562-33.625 40.136719-85.46875 78.59375-145.976563 108.289063-63.988281 31.398437-131.390624 49.410156-184.921874 49.410156zm266.191406-295.039062c-51.320313 0-116.3125 17.453125-178.3125 47.878906-58.671875 28.789063-108.777344 65.886719-141.089844 104.453125-30.5 36.40625-41.453125 70.617188-30.046875 93.859375 10.710937 21.824219 40.277344 33.84375 83.257813 33.84375 51.316406.003906 116.308593-17.449219 178.3125-47.875 58.667968-28.792969 108.773437-65.886719 141.089843-104.453125 30.5-36.40625 41.453125-70.617188 30.042969-93.859375-10.707031-21.824219-40.277344-33.847656-83.253906-33.847656zm0 0" fill="#565c62"/><path d="m305.507812 256c0 38.460938-31.179687 69.640625-69.640624 69.640625-38.460938 0-69.640626-31.179687-69.640626-69.640625s31.179688-69.640625 69.640626-69.640625c38.460937 0 69.640624 31.179687 69.640624 69.640625zm0 0" fill="#d9d7d8"/><path d="m196.226562 256c0-33.308594 23.394532-61.140625 54.640626-68.003906-4.832032-1.058594-9.847657-1.636719-15-1.636719-38.460938 0-69.640626 31.179687-69.640626 69.640625s31.179688 69.640625 69.640626 69.640625c5.152343 0 10.167968-.578125 15-1.640625-31.246094-6.859375-54.640626-34.691406-54.640626-68zm0 0" fill="#bab8b9"/><path d="m206.507812 55.667969c0 19.683593-15.957031 35.640625-35.640624 35.640625-19.683594 0-35.640626-15.957032-35.640626-35.640625 0-19.683594 15.957032-35.640625 35.640626-35.640625 19.683593 0 35.640624 15.957031 35.640624 35.640625zm0 0" fill="#fd6f71"/><path d="m155.226562 55.667969c0-16.210938 10.828126-29.886719 25.640626-34.207031-3.171876-.929688-6.527344-1.433594-10-1.433594-19.683594 0-35.640626 15.957031-35.640626 35.640625 0 19.683593 15.957032 35.640625 35.640626 35.640625 3.472656 0 6.828124-.507813 10-1.433594-14.8125-4.324219-25.640626-17.996094-25.640626-34.207031zm0 0" fill="#e36465"/><path d="m442.007812 400.167969c0 19.683593-15.957031 35.640625-35.640624 35.640625-19.683594 0-35.640626-15.957032-35.640626-35.640625 0-19.683594 15.957032-35.640625 35.640626-35.640625 19.683593 0 35.640624 15.957031 35.640624 35.640625zm0 0" fill="#fadc60"/><path d="m390.726562 400.167969c0-16.210938 10.828126-29.886719 25.640626-34.207031-3.171876-.929688-6.527344-1.433594-10-1.433594-19.683594 0-35.640626 15.957031-35.640626 35.640625 0 19.683593 15.957032 35.640625 35.640626 35.640625 3.472656 0 6.828124-.507813 10-1.433594-14.8125-4.324219-25.640626-17.996094-25.640626-34.207031zm0 0" fill="#e6cb59"/><path d="m119.992188 402.875c0 19.683594-15.957032 35.640625-35.640626 35.640625-19.683593 0-35.640624-15.957031-35.640624-35.640625s15.957031-35.640625 35.640624-35.640625c19.683594 0 35.640626 15.957031 35.640626 35.640625zm0 0" fill="#58b78c"/><path d="m68.710938 402.875c0-16.210938 10.828124-29.882812 25.640624-34.207031-3.175781-.925781-6.527343-1.433594-10-1.433594-19.683593 0-35.640624 15.957031-35.640624 35.640625s15.957031 35.640625 35.640624 35.640625c3.472657 0 6.824219-.507813 10-1.433594-14.8125-4.324219-25.640624-17.996093-25.640624-34.207031zm0 0" fill="#46926f"/></svg>